<svg xmlns="http://www.w3.org/2000/svg" viewBox="0 0 576 719"><defs><style>.cls-1{isolation:isolate;}.cls-2{fill:#622e9e;}.cls-3{fill:#7f30c0;}.cls-17,.cls-4{fill:#141242;}.cls-4{opacity:0.05;}.cls-22,.cls-26,.cls-5,.cls-8,.cls-9{fill:none;}.cls-5{stroke:#000;}.cls-22,.cls-5{stroke-miterlimit:10;}.cls-6{fill:#fff;}.cls-7{fill:#ffa29b;}.cls-8{stroke:#001a4f;}.cls-26,.cls-8,.cls-9{stroke-linecap:round;stroke-linejoin:round;}.cls-9{stroke:#e78682;}.cls-10{fill:#d8c6be;}.cls-11{fill:#ead8cf;}.cls-12{fill:#ffce74;}.cls-13{fill:#ff6a71;}.cls-14{fill:#b4ccd6;}.cls-15{fill:#ffa43f;}.cls-16{fill:#e78682;}.cls-18{fill:#612632;}.cls-19{fill:#ff7796;mix-blend-mode:multiply;}.cls-20{fill:#070724;}.cls-21{fill:#00e897;}.cls-22{stroke:#fff;}.cls-23{fill:#00ee9e;}.cls-24{fill:#781f4b;}.cls-25{fill:#d58e48;}.cls-26{stroke:#ba7a3d;}.cls-27{fill:#ba7a3d;}.cls-28{fill:#140724;}</style></defs><g class="cls-1"><g id="Capa_1" data-name="Capa 1"><path class="cls-2" d="M576,0H247.29c-28,26.8-71,85.37-34.56,171.06,51.37,120.75,236.6-123.48,280.49-47.74S173.37,343.74,257.62,593.86c18,53.44,42.4,94.47,70.57,125.14H576Z"/><path class="cls-3" d="M493.22,123.32C449.33,47.58,264.1,291.81,212.73,171.06,176.28,85.37,219.25,26.8,247.29,0H0V315.69c54.36-9.07,131.86-5.64,174.6,70.39C237.51,498,36.42,596.32,88.6,719H328.19c-28.17-30.67-52.58-71.7-70.57-125.14C173.37,343.74,537.11,199.07,493.22,123.32Z"/><path class="cls-2" d="M174.6,386.08c-42.74-76-120.24-79.46-174.6-70.39V719H88.6C36.42,596.32,237.51,498,174.6,386.08Z"/><path class="cls-4" d="M497.56,387.55s-25,14.93-11.34,18.39S529,374.64,497.56,387.55Z"/><path class="cls-4" d="M433.25,403.92c25.82-2,39.8,13.07,9.77,19.31S380.92,407.9,433.25,403.92Z"/><path class="cls-5" d="M497.8,223a9.39,9.39,0,0,1,6.69,2.85,10.51,10.51,0,0,1,3,7.38v19.19"/><line class="cls-5" x1="485.57" y1="379.94" x2="504.62" y2="353.75"/><path class="cls-6" d="M485.57,379.94s-5.39-3.45,1.92-16.09c0,0,6.21-6.2,8.35-13.29a16.83,16.83,0,0,1,8.78,3.19l3.17-.14,2.29,1.67-22,30.25-2.3-1.67Z"/><path class="cls-7" d="M487.49,363.85,476.9,352.57l7.51-10.32,11.43,8.31C493.7,357.65,487.49,363.85,487.49,363.85Z"/><line class="cls-8" x1="507.79" y1="353.61" x2="485.78" y2="383.86"/><path class="cls-8" d="M486.71,365.27c-.14.16-3.81-1.86-2.91-2.61S486.71,365.27,486.71,365.27Z"/><path class="cls-8" d="M486.71,365.27c0,.21-4,1.46-3.91.29S486.71,365.27,486.71,365.27Z"/><path class="cls-8" d="M486.68,365.31a4.48,4.48,0,0,0,4,1.51"/><path class="cls-8" d="M485.49,367.76a4.46,4.46,0,0,0,4,1.5"/><path class="cls-8" d="M484.5,370.35a4,4,0,0,0,3.84,1.37"/><path class="cls-9" d="M488.9,350.11s3.07.58,2.73,3.22"/><path class="cls-10" d="M420.32,215.07h15.34s1.81,50.83,0,70.8c-.59,6.44-1.3,19.18-2,33.47a44.88,44.88,0,0,1-6.07-7.45C419.92,299,420.32,215.07,420.32,215.07Z"/><path class="cls-10" d="M466.53,317.24c9.13,8.91,20,18.05,20,18.05,3.63,14.53-9.08,20.58-9.08,20.58s-6.85-5.05-15.53-11.92a219.69,219.69,0,0,0,4.64-26.61Z"/><path class="cls-8" d="M423.76,215.07s-.57,82.35,10.27,96.85,46.48,41.89,46.48,41.89"/><line class="cls-5" x1="415.38" y1="406.5" x2="447.73" y2="407.83"/><path class="cls-6" d="M415.38,406.5s-.12-6.4,14.45-7.32c0,0,8.6,1.73,15.69-.42a16.81,16.81,0,0,1,2.21,9.07l1.88,2.56-.12,2.84-37.37-1.54.12-2.84Z"/><path class="cls-7" d="M429.83,399.18l3.51-15.07,12.76.53-.58,14.12C438.43,400.91,429.83,399.18,429.83,399.18Z"/><line class="cls-8" x1="449.61" y1="410.39" x2="412.24" y2="408.85"/><path class="cls-8" d="M428.22,399.32c-.21,0-.56-4.21.56-3.87S428.22,399.32,428.22,399.32Z"/><path class="cls-8" d="M428.22,399.32c-.18.12-3.43-2.52-2.41-3.09S428.22,399.32,428.22,399.32Z"/><path class="cls-8" d="M428.17,399.32a4.42,4.42,0,0,0,1,4.18"/><path class="cls-8" d="M425.47,399.68a4.46,4.46,0,0,0,1,4.18"/><path class="cls-8" d="M422.77,400.3a4,4,0,0,0,1,3.95"/><path class="cls-9" d="M442.05,392.74s1.22,2.86-1.16,4.05"/><path class="cls-11" d="M477.41,215.07s-6.65,63.54-10.89,102.27a232,232,0,0,1-19,69,19.35,19.35,0,0,1-16.69,0s3-80.49,4.85-100.46,0-70.8,0-70.8Z"/><path class="cls-7" d="M395.37,215.13a23.23,23.23,0,0,0-3.65,6.21,15,15,0,0,0-1.56,6.5c0,.51.71.92.85.43.48-1.65,1.41-5,1.78-4.92s-2.87,7.16-1.77,7.53,2.63-7.17,3.32-7c.32.08-2.59,8-2.11,8.89s1.12.28,1.25,0c1-2.1,1.44-6.81,2.33-8.29a.17.17,0,0,1,.31.12c-.35,2-1.39,8.37,0,9.42,1.62,1.25,2.19-7.62,2.64-9.43a3.7,3.7,0,0,1,1.37-2.4.68.68,0,0,1,1,.58c0,1.69.1,5.56.8,5.52,2.67-.15,1.23-5.41,3.08-9.54,1.07-2.4-.32-4.11-1.15-6-.64-1.47-.62-3.29-.89-4.36-1.49,1.27-4.41-1-6.63-.26C396.39,208.11,396.18,214.29,395.37,215.13Z"/><path class="cls-7" d="M497.76,215.13a23.23,23.23,0,0,1,3.65,6.21,14.87,14.87,0,0,1,1.56,6.5c0,.51-.7.92-.85.43-.48-1.65-1.4-5-1.77-4.92s2.86,7.16,1.76,7.53-2.63-7.17-3.31-7c-.33.08,2.59,8,2.11,8.89s-1.12.28-1.26,0c-1-2.1-1.44-6.81-2.33-8.29a.17.17,0,0,0-.31.12c.36,2,1.39,8.37,0,9.42-1.63,1.25-2.19-7.62-2.64-9.43a3.7,3.7,0,0,0-1.38-2.4.67.67,0,0,0-1,.58c0,1.69-.1,5.56-.81,5.52-2.66-.15-1.23-5.41-3.07-9.54-1.07-2.4.32-4.11,1.15-6,.63-1.47.61-3.29.88-4.36,1.49,1.27,4.41-1,6.63-.26C496.74,208.11,497,214.29,497.76,215.13Z"/><rect class="cls-12" x="479.94" y="252.42" width="33.89" height="44.38" transform="translate(993.78 549.21) rotate(180)"/><path class="cls-5" d="M486.3,252.42V233.23a10.14,10.14,0,0,1,7.62-10"/><path class="cls-5" d="M390.37,224.57a10,10,0,0,0-1.56,1.28,10.51,10.51,0,0,0-3,7.38v19.19"/><rect class="cls-13" x="379.47" y="252.42" width="33.89" height="44.38"/><path class="cls-5" d="M407,252.42V233.23a10.14,10.14,0,0,0-7.62-10"/><path class="cls-8" d="M468.07,215.07s-3.88,120.56-26.45,173.14"/><path class="cls-14" d="M391.19,201.29c-.14-26.11,16.34-57.8,25.72-73.23s25.41-14.22,35.7-14.22,29.25-2.12,38.33,20.27,13.4,47.37,11.59,67.64c-.9,10-3.56,8.4-10.29,8.17-4.69-.15-7.26-2.35-7.57-8.17-.6-11.49-2.83-50.83-5.91-50.63s5.32,43.21,2,79.52c0,0-26.32-10-40.24-5.15s-33.22,1.22-30.86-7.86c4.26-16.48,13.79-59.67,16.94-69.9,2.6-8.46-11.47,8.79-20,59.61-.65,3.89-3.78,4.08-8.47,3.48S391.23,209.28,391.19,201.29Z"/><path class="cls-7" d="M451.07,76c8-2.14,13.18,3.76,14.37,5.28,5,6.43,1.2,15.39-2.2,18.41s-3.56,3.19-3.74,8.33a47.16,47.16,0,0,0,.21,7.81s-8.43,5.86-16-.5l-.6-6.82-.3-3.33s-8-7-1.89-16S445.63,77.48,451.07,76Z"/><path class="cls-15" d="M466.06,95.81a4.49,4.49,0,0,0-6.53-.08s3-7.78-.5-9.23-24.29-8.88-16.77-17.85c4.43-5.28,3.05,4.6,15,4.66S477.27,91,466.06,95.81Z"/><path class="cls-16" d="M442.78,105.2s4.28,2.26,8.29.11a6.14,6.14,0,0,1-7.83,5.07Z"/><path class="cls-17" d="M448.68,91.67a1.33,1.33,0,1,0,1.69-.8A1.33,1.33,0,0,0,448.68,91.67Z"/><path class="cls-15" d="M453.75,92.06a.58.58,0,0,0,.37,0,.54.54,0,0,0,.4-.67c0-.18-1.12-4.36-5-4.77a.56.56,0,1,0-.11,1.11c3.13.33,4.05,3.89,4.06,3.93A.55.55,0,0,0,453.75,92.06Z"/><path class="cls-17" d="M442,87.68a1.33,1.33,0,1,0,1.69-.81A1.33,1.33,0,0,0,442,87.68Z"/><path class="cls-15" d="M447,87.26a.49.49,0,0,0,.34,0,.56.56,0,0,0,.45-.64c0-.12-.57-2.92-4.5-3.34a.55.55,0,0,0-.61.5.54.54,0,0,0,.49.61c3.07.32,3.5,2.34,3.52,2.43A.56.56,0,0,0,447,87.26Z"/><path class="cls-18" d="M444.06,98.75h0a2.8,2.8,0,0,0,2.22.14,3,3,0,0,0,1.55-1.5.59.59,0,0,0-.29-.73.56.56,0,0,0-.73.28,1.6,1.6,0,0,1-2.3.79.56.56,0,1,0-.46,1Z"/><path class="cls-18" d="M445.06,94.92l.05,0a.56.56,0,0,0,.73-.3.57.57,0,0,0-.3-.73s-.67-.31-.77-.82.36-1.09.76-1.49c2.33-2.34,2.29-3.76,2.28-3.91a.56.56,0,1,0-1.11.08h0s0,1.1-2,3a2.88,2.88,0,0,0-1.07,2.5A2.49,2.49,0,0,0,445.06,94.92Z"/><path class="cls-18" d="M462.41,98.15a.51.51,0,0,0,.18.09.59.59,0,0,0,.73-.4,1.81,1.81,0,0,0-.78-2.23.59.59,0,0,0-.8.26.61.61,0,0,0,.25.79c.09,0,.37.27.2.84A.58.58,0,0,0,462.41,98.15Z"/><path class="cls-18" d="M459.67,98.91a.6.6,0,0,0,.3.11c2,.13,3.24-1.91,3.29-2a.58.58,0,0,0-.19-.82.6.6,0,0,0-.82.2s-1,1.51-2.2,1.43a.59.59,0,0,0-.63.56A.61.61,0,0,0,459.67,98.91Z"/><path class="cls-19" d="M450.55,95.09s-.79-1.43-1.59-.8c-1,.76,1.79,2.88,1.79,2.88s2.35-2.34,1.28-3S450.55,95.09,450.55,95.09Z"/><path class="cls-19" d="M441.81,92.11s-.43-1.57-1.36-1.15c-1.11.51,1.06,3.22,1.06,3.22s2.84-1.72,2-2.63S441.81,92.11,441.81,92.11Z"/><line class="cls-5" x1="221.35" y1="340.47" x2="190.38" y2="342.94"/><path class="cls-6" d="M221.35,340.47s-.12-6.14-14.13-6.48c0,0-8.18,2-15.06.17a16.11,16.11,0,0,0-1.78,8.78l-1.7,2.53.21,2.71,35.78-2.86-.22-2.71Z"/><path class="cls-7" d="M207.22,334l-3.92-14.33-12.22,1,1.08,13.52C199,336,207.22,334,207.22,334Z"/><line class="cls-8" x1="188.68" y1="345.47" x2="224.45" y2="342.61"/><path class="cls-8" d="M208.77,334.06c.2,0,.39-4.05-.68-3.7S208.77,334.06,208.77,334.06Z"/><path class="cls-8" d="M208.78,334.05c.17.12,3.18-2.53,2.19-3.05S208.78,334.05,208.78,334.05Z"/><path class="cls-8" d="M208.82,334.06a4.27,4.27,0,0,1-.78,4"/><path class="cls-8" d="M211.42,334.3a4.29,4.29,0,0,1-.78,4.05"/><path class="cls-8" d="M214,334.79a3.87,3.87,0,0,1-.81,3.83"/><path class="cls-9" d="M195.27,328.26s-1.06,2.79,1.27,3.84"/><path class="cls-20" d="M197,238.72c-9.1-12.73-42.15-61.54-42.15-61.54h0c-2.78,2.48-3.21,2-3.21,2s-1.31.08-3.55,0c-.62,6.29-2.3,22.57-4.78,39.45,13.61,10.25,37.21,30.76,39.14,51,2.73,28.65,7.27,55.93,7.27,55.93s15.17,3.19,17-6.76C209.53,303.16,206.06,251.45,197,238.72Z"/><path class="cls-21" d="M189.47,83.32c-45-32.4-83.56,77.75-83.56,77.75,1,1,2,1.91,3,2.8,14.75,12.84,31.87,15,39.14,15.27,2.24.09,3.55,0,3.55,0s.43.51,3.21-2,7.89-7.94,17.25-19.86C190.83,133.45,202.58,92.75,189.47,83.32Z"/><path class="cls-4" d="M39.75,348.18s38.34-9.25,78.5-4.4c44.95,5.43,103.18-6.43,110.91,1.69s-47.25,17.71-79.53,14.44S5.16,357.51,39.75,348.18Z"/><path class="cls-22" d="M145.11,205.25s38.73,33.18,41.71,60.6S195,326.4,195,326.4"/><path class="cls-5" d="M223.53,170.67a10.58,10.58,0,0,0-6.84,4.52,11.82,11.82,0,0,0-1.81,8.79l3.9,21.27"/><rect class="cls-12" x="215.93" y="202.68" width="38.2" height="50.02" transform="translate(-37.2 46.11) rotate(-10.39)"/><path class="cls-5" d="M242.26,200.94l-3.9-21.27c-1.14-6.24-6.91-10.45-12.81-9.37l-2,.37"/><path class="cls-7" d="M229,175.94c-.83,1.47-4.06-3.58-4.47-4.23l-.05-.07.05.07c.4.65,3.51,5.75,2.09,6.52-1,.53-2.5-1.95-3.39-3.64-.4-.85-.73-1.46-.73-1.46s.29.64.73,1.46c.84,1.8,2,4.67,1.07,5.15-1.39.71-4-5.17-4-5.17s2,5.66.94,6.08-3.79-5.24-3.79-5.24a6.09,6.09,0,0,1-4.82-4.21c-.21-.74-1.43-1.3-3.13-1.65a15.72,15.72,0,0,1,5.47-6.88c1.94.88,3.68,1.75,5.09,2.49C226.7,168.63,229.9,174.37,229,175.94Z"/><path class="cls-23" d="M183.09,91.28c-15-6-36.44,45.86-22.48,55.78S207,169.5,208.14,170s7.44-1.06,9.41-7.32c0,0-35.61-23.41-34.16-34.42S191.72,94.76,183.09,91.28Z"/><line class="cls-5" x1="64.5" y1="335.5" x2="48.21" y2="309.04"/><path class="cls-6" d="M64.5,335.5s5.41-2.9-.65-15.53c0,0-5.48-6.4-7-13.33a16.06,16.06,0,0,0-8.63,2.4l-3-.37-2.32,1.43,18.81,30.56L64,339.23Z"/><path class="cls-7" d="M63.85,320l11-10L68.4,299.53l-11.56,7.11C58.37,313.57,63.85,320,63.85,320Z"/><line class="cls-8" x1="45.19" y1="308.67" x2="64" y2="339.23"/><path class="cls-8" d="M64.49,321.38c.13.16,3.78-1.5,3-2.28S64.49,321.38,64.49,321.38Z"/><path class="cls-8" d="M64.49,321.38c0,.21,3.71,1.69,3.72.57S64.49,321.38,64.49,321.38Z"/><path class="cls-8" d="M64.51,321.43a4.3,4.3,0,0,1-4,1.14"/><path class="cls-8" d="M65.47,323.85a4.27,4.27,0,0,1-4,1.14"/><path class="cls-8" d="M66.23,326.4a3.88,3.88,0,0,1-3.78,1"/><path class="cls-9" d="M63.52,306.72s-3,.32-2.85,2.87"/><path class="cls-17" d="M105.91,192.33c1.48,21.83,5.24,50.48,2.45,58.67s-42.81,49.11-42.81,49.11,2,10.1,8.81,11.91c0,0,52.13-30.56,60.31-52.84,3.41-9.28,6.35-25.18,8.61-40.59,2.48-16.88,4.16-33.16,4.78-39.45-7.27-.29-24.39-2.43-39.14-15.27C107.14,169.3,105,178.92,105.91,192.33Z"/><path class="cls-5" d="M206.52,182.67a10.56,10.56,0,0,0-7.54,3.22,11.8,11.8,0,0,0-3.37,8.32v21.62"/><rect class="cls-13" x="188.44" y="215.83" width="38.2" height="50.02"/><path class="cls-5" d="M219.48,215.83V194.21c0-6.35-4.91-11.54-10.92-11.54h-2"/><path class="cls-7" d="M216.39,56.48c-4.25-7.16-12.19-6.58-14.12-6.31-8.16,1.12-11.72,10.29-11.38,14.87s.32,4.81-3.16,8.66a48,48,0,0,1-5.66,5.5S184,89.38,194,90.13l5.24-4.51,2.56-2.2s10.68.58,12.63-10.22S219.29,61.37,216.39,56.48Z"/><path class="cls-24" d="M191.6,60.23a4.53,4.53,0,0,1,4.78,4.54s3.32-7.73,6.86-6.32,23.84,10.69,24.71-1.1c.51-6.94-5.45,1.18-14.16-7.23S186.87,48.85,191.6,60.23Z"/><path class="cls-16" d="M201.81,83.42s-4.68-1.38-6.06-5.76c0,0-3.91,5.35,2.09,9.18Z"/><path class="cls-17" d="M207.08,69.48a1.34,1.34,0,1,1-.65-1.77A1.33,1.33,0,0,1,207.08,69.48Z"/><path class="cls-24" d="M203.15,66.19a.54.54,0,0,1-.3-.24.56.56,0,0,1,.19-.77c.15-.1,3.88-2.36,7,.1a.57.57,0,0,1,.09.79.56.56,0,0,1-.79.09c-2.5-2-5.68,0-5.71,0A.58.58,0,0,1,203.15,66.19Z"/><path class="cls-17" d="M214.72,71.29a1.33,1.33,0,1,1-.65-1.77A1.33,1.33,0,0,1,214.72,71.29Z"/><path class="cls-24" d="M211.41,67.47a.51.51,0,0,1-.28-.2.56.56,0,0,1,.13-.78c.1-.07,2.47-1.72,5.61.75A.57.57,0,0,1,217,68a.56.56,0,0,1-.79.1c-2.44-1.93-4.18-.78-4.26-.73A.53.53,0,0,1,211.41,67.47Z"/><path class="cls-18" d="M205.44,77.86h0a2.81,2.81,0,0,1-1.7-1.46,3.09,3.09,0,0,1-.07-2.18.6.6,0,0,1,.72-.33.57.57,0,0,1,.33.73,1.64,1.64,0,0,0,1.11,2.19.56.56,0,1,1-.38,1.06Z"/><path class="cls-18" d="M207.41,74.38l0,0a.56.56,0,0,1-.31-.73.58.58,0,0,1,.73-.32,1.39,1.39,0,0,0,1.14,0c.42-.29.5-1,.5-1.61,0-3.33,1-4.33,1.1-4.44a.57.57,0,1,1,.75.85h0s-.76.81-.73,3.57a2.85,2.85,0,0,1-1,2.56A2.54,2.54,0,0,1,207.41,74.38Z"/><path class="cls-18" d="M192.58,64.49a.64.64,0,0,1-.18-.06.59.59,0,0,1-.25-.81,1.85,1.85,0,0,1,2.14-1.06.6.6,0,0,1,.39.75.62.62,0,0,1-.74.4c-.1,0-.45-.06-.73.47A.61.61,0,0,1,192.58,64.49Z"/><path class="cls-18" d="M194,67a.58.58,0,0,1-.3-.13c-1.5-1.29-1-3.66-1-3.76a.58.58,0,0,1,.71-.46.61.61,0,0,1,.46.72s-.38,1.77.58,2.59a.6.6,0,0,1-.48,1Z"/><path class="cls-19" d="M203.32,70.64s1.58-.48,1.71.54c.16,1.22-3.31.82-3.31.82s-.06-3.35,1.19-3.08S203.32,70.64,203.32,70.64Z"/><path class="cls-19" d="M211.74,74.64s1.43-.83,1.79.12c.45,1.15-3,1.58-3,1.58s-.84-3.24.44-3.27S211.74,74.64,211.74,74.64Z"/><path class="cls-7" d="M211,188.85c-1.08,1.3-3.35-4.25-3.63-5l0-.08,0,.08c.28.71,2.42,6.29.88,6.79-1.05.34-2.1-2.38-2.68-4.2-.24-.9-.45-1.56-.45-1.56s.17.67.45,1.56c.51,1.92,1.14,5,.12,5.26-1.49.45-3-5.82-3-5.82s.93,5.93-.17,6.16-2.78-5.83-2.78-5.83a6.13,6.13,0,0,1-4-5c-.07-.78-1.16-1.54-2.77-2.2a15.73,15.73,0,0,1,6.62-5.77c1.75,1.2,3.3,2.37,4.56,3.36C210,181.24,212.11,187.46,211,188.85Z"/><path class="cls-23" d="M181.05,97.3c-13.64-8.64-44.1,38.54-32.17,50.81s41.61,30.44,42.63,31.08,7.51.3,10.58-5.5c0,0-30.81-29.44-27.4-40S188.92,102.28,181.05,97.3Z"/><path class="cls-22" d="M106.44,174.9s26.84,17.72,53.07,9.19"/><path class="cls-22" d="M119.55,181.4s3.87,65.14-5.68,76.51-47.15,45.93-47.15,45.93"/><path class="cls-4" d="M361.27,650.69s-22.89,13.66-10.38,16.83S390.07,638.87,361.27,650.69Z"/><path class="cls-4" d="M168.21,644.66c-31.23.47-45.3,19.22-8.28,23.21S231.5,643.69,168.21,644.66Z"/><path class="cls-24" d="M240.71,361.15s-13,17.42-8.28,30.28-11.49,21.95-5.57,32.36-8.26,22.39,8.2,30c0,0,15.84,4.28,15.84,0V361.15Z"/><path class="cls-8" d="M166.76,367.27a7.68,7.68,0,0,1,4.17,4.26,8.64,8.64,0,0,1-.05,6.53l-6,14.51"/><path class="cls-25" d="M165.87,366.36c-1.59,1.08,4.43,4.28,5.21,4.68l.08,0-.08,0c-.78-.4-6.85-3.46-7.59-1.77-.5,1.15,2.45,2.65,4.44,3.51,1,.37,1.73.69,1.73.69s-.75-.27-1.73-.69c-2.11-.79-5.47-1.85-5.94-.74-.68,1.64,6.24,4.1,6.24,4.1s-6.6-1.74-7-.51,6.28,3.82,6.28,3.82a7,7,0,0,0,5.22,5.08c.87.17,1.61,1.49,2.17,3.39,2.34-1.29,5.58-3.55,7.3-6.83-1.17-2.13-2.32-4-3.29-5.56C174.38,368.31,167.58,365.21,165.87,366.36Z"/><path class="cls-11" d="M251.75,405.08s-21-.42-35.44-3.63-34-21.23-34-21.23c-7.2,1.27-8.45,6.59-8.45,6.59s21,24.65,38.16,32.09,41,10,46.71,5.74C258.74,424.64,270.51,413.37,251.75,405.08Z"/><rect class="cls-12" x="121.33" y="386.89" width="47.29" height="61.92" transform="translate(118.74 859.35) rotate(-157.47)"/><path class="cls-8" d="M148.82,385.92l6-14.52a8.19,8.19,0,0,1,10.54-4.7"/><path class="cls-8" d="M347.4,366.13a7.71,7.71,0,0,0-4.17,4.26,8.57,8.57,0,0,0,.06,6.52l6,14.52"/><path class="cls-25" d="M348.29,365.22c1.59,1.07-4.43,4.27-5.21,4.68l-.08,0,.08,0c.78-.4,6.85-3.46,7.59-1.77.51,1.15-2.45,2.64-4.44,3.51-1,.37-1.73.69-1.73.69s.75-.27,1.73-.69c2.11-.8,5.48-1.85,5.94-.74.68,1.63-6.24,4.09-6.24,4.09s6.6-1.73,7-.5-6.28,3.81-6.28,3.81a6.94,6.94,0,0,1-5.22,5.08c-.87.17-1.61,1.5-2.17,3.4-2.34-1.29-5.58-3.55-7.29-6.84,1.17-2.12,2.31-4,3.28-5.55C339.78,367.17,346.58,364.07,348.29,365.22Z"/><path class="cls-25" d="M258.24,520.91s1.91,24.26,11.41,35.91,68.9,38,68.9,38,6.2-2.45,3-10.63c0,0-52.23-29.21-53.91-41-1.64-11.5,4.42-62.44-23.82-77.58"/><path class="cls-11" d="M255,399.1c-8.84,1.68-16,24.22-23.87,30.52s9.89,6.64,5.46,18.58-2.05,30.41-2.05,30.41,23.88-1.21,28.65-11.16,8.44-40.6,10.57-47.12C276.85,410.93,274.12,395.45,255,399.1Z"/><path class="cls-11" d="M262.42,403.94s20.95-.42,35.44-3.63,34-21.23,34-21.23c7.19,1.27,8.44,6.58,8.44,6.58s-21,24.66-38.16,32.1-41,10-46.71,5.73C255.42,423.49,243.65,412.23,262.42,403.94Z"/><path class="cls-25" d="M204.1,566.82c-2.73,8.18-23.65,59.83-23.65,59.83l8.18,7s26.83-36.83,34.11-54.11,16.82-47.75,40-63.21,20.74-38.65,0-42.29S206.82,558.63,204.1,566.82Z"/><path class="cls-13" d="M268,458.59c-15.47,2.6-37.17,18.08-46,30S205.57,517.25,199.09,520c0,0,18.08,16,39.56,7.5s36.16-2.73,51.84-17.73,12.62-39.56,23.88-41.61S304.48,452.45,268,458.59Z"/><path class="cls-14" d="M174.7,633.8l13.5,5-7.13,12.74c-6.59.66-22.16,1.84-33.81-3.48C156.8,632,174.7,633.8,174.7,633.8Z"/><path class="cls-13" d="M145.28,651.94a33,33,0,0,1,2-3.9c11.65,5.32,27.22,4.14,33.81,3.48l-1.89,3.36C165.53,659.66,145.28,651.94,145.28,651.94Z"/><path class="cls-6" d="M184,641.22,194.13,627l-12-5.77-7.86,16.34S176.72,640.85,184,641.22Z"/><path class="cls-8" d="M155.13,639c2.67,1.76,6,5.48,4.55,12.81"/><path class="cls-8" d="M186,642.68s-10.44-1.9-12.81,9.38"/><path class="cls-8" d="M171.6,641.14a6.74,6.74,0,0,0-2.1-4.48"/><path class="cls-8" d="M167.7,642.29a6.76,6.76,0,0,0-2.11-4.47"/><path class="cls-14" d="M343.74,598.25l3.47-14L360.66,590c1.38,6.47,4.27,21.82.27,34C343.9,616.25,343.74,598.25,343.74,598.25Z"/><path class="cls-13" d="M365,625.49a35.53,35.53,0,0,1-4.09-1.54c4-12.16,1.11-27.51-.27-34l3.54,1.49C370.47,604.51,365,625.49,365,625.49Z"/><path class="cls-6" d="M350.1,588.22l-15.25-8.53-4.41,12.56,17.11,6S350.53,595.46,350.1,588.22Z"/><path class="cls-8" d="M351.08,617.13c1.45-2.86,4.78-6.54,12.23-5.94"/><path class="cls-8" d="M351.32,586s-.74,10.59,10.74,11.69"/><path class="cls-8" d="M351.38,600.52a6.71,6.71,0,0,0-4.21,2.58"/><path class="cls-8" d="M353,604.27a6.79,6.79,0,0,0-4.22,2.59"/><path class="cls-26" d="M185.64,636.2s-.22,3-2.95,3.61"/><rect class="cls-13" x="345.55" y="385.74" width="47.29" height="61.92" transform="translate(-131.51 173.3) rotate(-22.53)"/><path class="cls-8" d="M365.34,384.78l-6-14.52a8.2,8.2,0,0,0-10.55-4.7"/><path class="cls-25" d="M245.85,364.17c7.05-4.44,13.85-.29,15.44.83,6.75,4.72,5.73,14.5,3.34,18.43s-2.48,4.13-1.14,9.14a47.86,47.86,0,0,0,2.52,7.48s-6.4,8.16-15.62,4.27l-2.6-6.4-1.28-3.13s-9.75-4.36-6.56-14.86S241,367.19,245.85,364.17Z"/><path class="cls-24" d="M260.56,457c-11.1-14.32,8-19.4,3.15-30.33s7.94-15,2.3-26.64-3.16-13.27-3.16-13.27,5-7.24,2.66-9.24a3.67,3.67,0,0,0-4.95,0c-11.44-1.09-12.12-11.41-12.12-11.41s-.58,4.25-6.36,4.25-3-19.2,18.48-13.59c8.71,2.28,23.48,12.12,18.94,27s18,17.59,5.91,35.78-1.82,17.28-3.18,28.64S263,460.15,260.56,457Z"/><path class="cls-27" d="M246.51,394.79s4.8.91,8-2.35c0,0,1,6.54-6,7.21Z"/><path class="cls-28" d="M248.44,380.65a1.38,1.38,0,1,0,1.49-1.25A1.38,1.38,0,0,0,248.44,380.65Z"/><path class="cls-24" d="M253.63,379.73a.51.51,0,0,0,.38-.06.57.57,0,0,0,.24-.78c-.09-.17-2.25-4.09-6.28-3.5a.58.58,0,0,0-.49.66.59.59,0,0,0,.66.49c3.23-.48,5.07,2.86,5.09,2.9A.58.58,0,0,0,253.63,379.73Z"/><path class="cls-28" d="M240.71,378.34a1.38,1.38,0,1,0,1.49-1.24A1.38,1.38,0,0,0,240.71,378.34Z"/><path class="cls-24" d="M245.62,376.64a.53.53,0,0,0,.35,0,.58.58,0,0,0,.29-.76c-.06-.11-1.32-2.79-5.38-2.2a.58.58,0,1,0,.17,1.14c3.16-.46,4.12,1.46,4.16,1.54A.55.55,0,0,0,245.62,376.64Z"/><path class="cls-18" d="M245.61,388.94h0a3,3,0,0,0,2.27-.43,3.18,3.18,0,0,0,1.18-1.91.62.62,0,0,0-.48-.66.58.58,0,0,0-.66.47,1.67,1.67,0,0,1-2.11,1.39.57.57,0,0,0-.21,1.13Z"/><path class="cls-18" d="M245.64,384.84h.05a.59.59,0,0,0,.66-.49.61.61,0,0,0-.49-.66,1.38,1.38,0,0,1-1-.63,2.12,2.12,0,0,1,.38-1.69c1.75-2.94,1.34-4.36,1.29-4.52a.58.58,0,1,0-1.09.38h0s.26,1.1-1.19,3.55a2.94,2.94,0,0,0-.43,2.79A2.59,2.59,0,0,0,245.64,384.84Z"/><path class="cls-18" d="M263.35,381.93a.74.74,0,0,0,.21,0,.62.62,0,0,0,.54-.68,1.92,1.92,0,0,0-1.66-1.82.62.62,0,0,0-.09,1.23c.1,0,.45.11.52.73A.64.64,0,0,0,263.35,381.93Z"/><path class="cls-18" d="M261,383.76a.53.53,0,0,0,.33,0c1.92-.67,2.32-3.13,2.33-3.24a.6.6,0,0,0-.51-.7.61.61,0,0,0-.7.52s-.31,1.84-1.52,2.26a.61.61,0,0,0-.38.78A.61.61,0,0,0,261,383.76Z"/><path class="cls-19" d="M251.2,383.61s-1.17-1.24-1.8-.4c-.77,1,2.53,2.43,2.53,2.43s1.76-2.95.51-3.36S251.2,383.61,251.2,383.61Z"/><path class="cls-19" d="M241.65,382.86s-.84-1.48-1.66-.82c-1,.8,1.89,3,1.89,3s2.41-2.45,1.29-3.14S241.65,382.86,241.65,382.86Z"/></g></g></svg>