<svg id="logo" xmlns="http://www.w3.org/2000/svg" viewBox="0 0 400 400"><path fill="currentColor" d="M149.81,221.44a8.4,8.4,0,1,1,8.4-8.4A8.4,8.4,0,0,1,149.81,221.44Zm49.08-19.58a6.1,6.1,0,1,0-6.1,6.1A6.1,6.1,0,0,0,198.89,201.86Zm-38.46,57.48a9.25,9.25,0,1,0-9.25,9.24A9.25,9.25,0,0,0,160.43,259.34Zm46.65,18.49A12.15,12.15,0,1,0,194.94,290,12.15,12.15,0,0,0,207.08,277.83Zm41-26.26a13.67,13.67,0,1,0-13.66,13.66A13.67,13.67,0,0,0,248.06,251.57Zm8.4-47.56a15.53,15.53,0,1,0-15.53,15.53A15.53,15.53,0,0,0,256.46,204Zm-27.75-39.28a16.89,16.89,0,1,0-16.89,16.89A16.89,16.89,0,0,0,228.71,164.73Zm-45.92-12A17.76,17.76,0,1,0,165,170.47,17.76,17.76,0,0,0,182.79,152.71Zm-43.37,17.76a18.93,18.93,0,1,0-18.93,18.93A18.92,18.92,0,0,0,139.42,170.47Zm-27.54,40.44a19.52,19.52,0,1,0-19.52,19.51A19.52,19.52,0,0,0,111.88,210.91ZM107.6,259a20,20,0,1,0-20,20A20,20,0,0,0,107.6,259Zm20,45a20,20,0,1,0-20,20A20,20,0,0,0,127.59,304ZM165,334.48a20,20,0,1,0-20,20A20,20,0,0,0,165,334.48Zm46.79,13.67a20,20,0,1,0-20,20A20,20,0,0,0,211.82,348.15Zm49.1-6.64a20,20,0,1,0-20,20A20,20,0,0,0,260.92,341.51Zm40.29-24.29a19,19,0,1,0-19,18.95A19,19,0,0,0,301.21,317.22Zm30.47-39.39a18.95,18.95,0,1,0-18.95,18.95A18.94,18.94,0,0,0,331.68,277.83ZM347.31,232a18.95,18.95,0,1,0-18.95,18.95A19,19,0,0,0,347.31,232Zm-1.59-48.79a17.37,17.37,0,1,0-17.36,17.37A17.37,17.37,0,0,0,345.72,183.2Zm-16.06-47.29A15.63,15.63,0,1,0,314,151.54,15.63,15.63,0,0,0,329.66,135.91Zm-30-40.21a14.88,14.88,0,1,0-14.88,14.88A14.88,14.88,0,0,0,299.71,95.7Zm-40.9-29.76A13.77,13.77,0,1,0,245,79.72,13.77,13.77,0,0,0,258.81,65.94Zm-47-18a12.11,12.11,0,1,0-12.11,12.12A12.11,12.11,0,0,0,211.82,48Zm-49.9-5.73a10.39,10.39,0,1,0-10.38,10.39A10.38,10.38,0,0,0,161.92,42.24ZM110.35,49.7a7.6,7.6,0,1,0-7.6,7.6A7.6,7.6,0,0,0,110.35,49.7Zm-47.14,18A5.26,5.26,0,1,0,58,73,5.26,5.26,0,0,0,63.21,67.69Z"/></svg>